<mxfile host="app.diagrams.net" agent="Mozilla/5.0 (Windows NT 10.0; Win64; x64) AppleWebKit/537.36 (KHTML, like Gecko) Chrome/137.0.0.0 Safari/537.36" version="27.2.0">
  <diagram name="第 1 页" id="eKRSwCpM-F1JXuK_xhCH">
    <mxGraphModel dx="2074" dy="898" grid="1" gridSize="10" guides="1" tooltips="1" connect="1" arrows="1" fold="1" page="1" pageScale="1" pageWidth="1654" pageHeight="1169" math="0" shadow="0">
      <root>
        <mxCell id="0" />
        <mxCell id="1" parent="0" />
        <mxCell id="z6jtDFrO4imVO3y1Upf1-3" style="edgeStyle=orthogonalEdgeStyle;rounded=0;orthogonalLoop=1;jettySize=auto;html=1;entryX=0.25;entryY=0;entryDx=0;entryDy=0;" edge="1" parent="1" source="yjypv0oO-a__56mrV2jK-1" target="yjypv0oO-a__56mrV2jK-5">
          <mxGeometry relative="1" as="geometry" />
        </mxCell>
        <mxCell id="z6jtDFrO4imVO3y1Upf1-4" value="accesses" style="edgeLabel;html=1;align=center;verticalAlign=middle;resizable=0;points=[];" vertex="1" connectable="0" parent="z6jtDFrO4imVO3y1Upf1-3">
          <mxGeometry x="-0.1964" y="4" relative="1" as="geometry">
            <mxPoint x="1" as="offset" />
          </mxGeometry>
        </mxCell>
        <mxCell id="z6jtDFrO4imVO3y1Upf1-5" style="edgeStyle=orthogonalEdgeStyle;rounded=0;orthogonalLoop=1;jettySize=auto;html=1;entryX=0.5;entryY=0;entryDx=0;entryDy=0;" edge="1" parent="1" source="yjypv0oO-a__56mrV2jK-1" target="yjypv0oO-a__56mrV2jK-33">
          <mxGeometry relative="1" as="geometry" />
        </mxCell>
        <mxCell id="z6jtDFrO4imVO3y1Upf1-6" value="calls" style="edgeLabel;html=1;align=center;verticalAlign=middle;resizable=0;points=[];" vertex="1" connectable="0" parent="z6jtDFrO4imVO3y1Upf1-5">
          <mxGeometry x="-0.1809" y="-1" relative="1" as="geometry">
            <mxPoint x="-1" as="offset" />
          </mxGeometry>
        </mxCell>
        <mxCell id="z6jtDFrO4imVO3y1Upf1-7" style="edgeStyle=orthogonalEdgeStyle;rounded=0;orthogonalLoop=1;jettySize=auto;html=1;entryX=0.5;entryY=0;entryDx=0;entryDy=0;" edge="1" parent="1" source="yjypv0oO-a__56mrV2jK-1" target="yjypv0oO-a__56mrV2jK-29">
          <mxGeometry relative="1" as="geometry" />
        </mxCell>
        <mxCell id="z6jtDFrO4imVO3y1Upf1-8" value="calls" style="edgeLabel;html=1;align=center;verticalAlign=middle;resizable=0;points=[];" vertex="1" connectable="0" parent="z6jtDFrO4imVO3y1Upf1-7">
          <mxGeometry x="-0.2296" y="-7" relative="1" as="geometry">
            <mxPoint as="offset" />
          </mxGeometry>
        </mxCell>
        <mxCell id="yjypv0oO-a__56mrV2jK-1" value="APIService" style="swimlane;fontStyle=1;align=center;verticalAlign=top;childLayout=stackLayout;horizontal=1;startSize=26;horizontalStack=0;resizeParent=1;resizeParentMax=0;resizeLast=0;collapsible=1;marginBottom=0;whiteSpace=wrap;html=1;" parent="1" vertex="1">
          <mxGeometry x="10" y="50" width="160" height="90" as="geometry" />
        </mxCell>
        <mxCell id="yjypv0oO-a__56mrV2jK-3" value="" style="line;strokeWidth=1;fillColor=none;align=left;verticalAlign=middle;spacingTop=-1;spacingLeft=3;spacingRight=3;rotatable=0;labelPosition=right;points=[];portConstraint=eastwest;strokeColor=inherit;" parent="yjypv0oO-a__56mrV2jK-1" vertex="1">
          <mxGeometry y="26" width="160" height="8" as="geometry" />
        </mxCell>
        <mxCell id="yjypv0oO-a__56mrV2jK-4" value="+ getPrediction()&lt;div&gt;+ getBikeInfo()&lt;/div&gt;&lt;div&gt;+ postDispatch()&lt;/div&gt;" style="text;strokeColor=none;fillColor=none;align=left;verticalAlign=top;spacingLeft=4;spacingRight=4;overflow=hidden;rotatable=0;points=[[0,0.5],[1,0.5]];portConstraint=eastwest;whiteSpace=wrap;html=1;" parent="yjypv0oO-a__56mrV2jK-1" vertex="1">
          <mxGeometry y="34" width="160" height="56" as="geometry" />
        </mxCell>
        <mxCell id="z6jtDFrO4imVO3y1Upf1-34" style="edgeStyle=orthogonalEdgeStyle;rounded=0;orthogonalLoop=1;jettySize=auto;html=1;entryX=0;entryY=0.5;entryDx=0;entryDy=0;" edge="1" parent="1" source="yjypv0oO-a__56mrV2jK-5" target="yjypv0oO-a__56mrV2jK-14">
          <mxGeometry relative="1" as="geometry" />
        </mxCell>
        <mxCell id="z6jtDFrO4imVO3y1Upf1-35" value="manages" style="edgeLabel;html=1;align=center;verticalAlign=middle;resizable=0;points=[];" vertex="1" connectable="0" parent="z6jtDFrO4imVO3y1Upf1-34">
          <mxGeometry x="0.6071" y="-4" relative="1" as="geometry">
            <mxPoint x="1" as="offset" />
          </mxGeometry>
        </mxCell>
        <mxCell id="yjypv0oO-a__56mrV2jK-5" value="DataManager" style="swimlane;fontStyle=1;align=center;verticalAlign=top;childLayout=stackLayout;horizontal=1;startSize=26;horizontalStack=0;resizeParent=1;resizeParentMax=0;resizeLast=0;collapsible=1;marginBottom=0;whiteSpace=wrap;html=1;" parent="1" vertex="1">
          <mxGeometry x="-460" y="150" width="160" height="90" as="geometry" />
        </mxCell>
        <mxCell id="yjypv0oO-a__56mrV2jK-7" value="" style="line;strokeWidth=1;fillColor=none;align=left;verticalAlign=middle;spacingTop=-1;spacingLeft=3;spacingRight=3;rotatable=0;labelPosition=right;points=[];portConstraint=eastwest;strokeColor=inherit;" parent="yjypv0oO-a__56mrV2jK-5" vertex="1">
          <mxGeometry y="26" width="160" height="8" as="geometry" />
        </mxCell>
        <mxCell id="yjypv0oO-a__56mrV2jK-8" value="&lt;div&gt;+storeMetroData()&lt;/div&gt;&lt;div&gt;+storeBikeData()&lt;/div&gt;&lt;div&gt;&lt;span style=&quot;background-color: transparent; color: light-dark(rgb(0, 0, 0), rgb(255, 255, 255));&quot;&gt;+cleanData()&lt;/span&gt;&lt;/div&gt;" style="text;strokeColor=none;fillColor=none;align=left;verticalAlign=top;spacingLeft=4;spacingRight=4;overflow=hidden;rotatable=0;points=[[0,0.5],[1,0.5]];portConstraint=eastwest;whiteSpace=wrap;html=1;" parent="yjypv0oO-a__56mrV2jK-5" vertex="1">
          <mxGeometry y="34" width="160" height="56" as="geometry" />
        </mxCell>
        <mxCell id="yjypv0oO-a__56mrV2jK-9" value="Bike&amp;nbsp;" style="swimlane;fontStyle=1;align=center;verticalAlign=top;childLayout=stackLayout;horizontal=1;startSize=26;horizontalStack=0;resizeParent=1;resizeParentMax=0;resizeLast=0;collapsible=1;marginBottom=0;whiteSpace=wrap;html=1;" parent="1" vertex="1">
          <mxGeometry x="10" y="710" width="160" height="118" as="geometry" />
        </mxCell>
        <mxCell id="yjypv0oO-a__56mrV2jK-10" value="&lt;div&gt;+String bikeId&lt;/div&gt;&lt;div&gt;+String type&lt;/div&gt;&lt;div&gt;+Double longitude&lt;/div&gt;&lt;div&gt;+Double latitude&lt;/div&gt;&lt;div&gt;+String status&lt;/div&gt;" style="text;strokeColor=none;fillColor=none;align=left;verticalAlign=top;spacingLeft=4;spacingRight=4;overflow=hidden;rotatable=0;points=[[0,0.5],[1,0.5]];portConstraint=eastwest;whiteSpace=wrap;html=1;" parent="yjypv0oO-a__56mrV2jK-9" vertex="1">
          <mxGeometry y="26" width="160" height="84" as="geometry" />
        </mxCell>
        <mxCell id="yjypv0oO-a__56mrV2jK-11" value="" style="line;strokeWidth=1;fillColor=none;align=left;verticalAlign=middle;spacingTop=-1;spacingLeft=3;spacingRight=3;rotatable=0;labelPosition=right;points=[];portConstraint=eastwest;strokeColor=inherit;" parent="yjypv0oO-a__56mrV2jK-9" vertex="1">
          <mxGeometry y="110" width="160" height="8" as="geometry" />
        </mxCell>
        <mxCell id="z6jtDFrO4imVO3y1Upf1-23" style="edgeStyle=orthogonalEdgeStyle;rounded=0;orthogonalLoop=1;jettySize=auto;html=1;" edge="1" parent="1" source="yjypv0oO-a__56mrV2jK-13" target="yjypv0oO-a__56mrV2jK-9">
          <mxGeometry relative="1" as="geometry" />
        </mxCell>
        <mxCell id="z6jtDFrO4imVO3y1Upf1-24" value="contains" style="edgeLabel;html=1;align=center;verticalAlign=middle;resizable=0;points=[];" vertex="1" connectable="0" parent="z6jtDFrO4imVO3y1Upf1-23">
          <mxGeometry x="-0.0931" y="-3" relative="1" as="geometry">
            <mxPoint as="offset" />
          </mxGeometry>
        </mxCell>
        <mxCell id="z6jtDFrO4imVO3y1Upf1-32" style="edgeStyle=orthogonalEdgeStyle;rounded=0;orthogonalLoop=1;jettySize=auto;html=1;entryX=0.5;entryY=1;entryDx=0;entryDy=0;" edge="1" parent="1" source="yjypv0oO-a__56mrV2jK-13" target="yjypv0oO-a__56mrV2jK-17">
          <mxGeometry relative="1" as="geometry">
            <Array as="points">
              <mxPoint x="-170" y="460" />
            </Array>
          </mxGeometry>
        </mxCell>
        <mxCell id="z6jtDFrO4imVO3y1Upf1-33" value="generates" style="edgeLabel;html=1;align=center;verticalAlign=middle;resizable=0;points=[];" vertex="1" connectable="0" parent="z6jtDFrO4imVO3y1Upf1-32">
          <mxGeometry x="0.5419" y="3" relative="1" as="geometry">
            <mxPoint as="offset" />
          </mxGeometry>
        </mxCell>
        <mxCell id="yjypv0oO-a__56mrV2jK-13" value="MetroStation&amp;nbsp;" style="swimlane;fontStyle=1;align=center;verticalAlign=top;childLayout=stackLayout;horizontal=1;startSize=26;horizontalStack=0;resizeParent=1;resizeParentMax=0;resizeLast=0;collapsible=1;marginBottom=0;whiteSpace=wrap;html=1;" parent="1" vertex="1">
          <mxGeometry x="10" y="430" width="160" height="124" as="geometry" />
        </mxCell>
        <mxCell id="yjypv0oO-a__56mrV2jK-14" value="&lt;div&gt;+String stationId&lt;/div&gt;&lt;div&gt;+String name&lt;/div&gt;&lt;div&gt;+Double longitude&lt;/div&gt;&lt;div&gt;+Double latitude&lt;/div&gt;" style="text;strokeColor=none;fillColor=none;align=left;verticalAlign=top;spacingLeft=4;spacingRight=4;overflow=hidden;rotatable=0;points=[[0,0.5],[1,0.5]];portConstraint=eastwest;whiteSpace=wrap;html=1;" parent="yjypv0oO-a__56mrV2jK-13" vertex="1">
          <mxGeometry y="26" width="160" height="64" as="geometry" />
        </mxCell>
        <mxCell id="yjypv0oO-a__56mrV2jK-15" value="" style="line;strokeWidth=1;fillColor=none;align=left;verticalAlign=middle;spacingTop=-1;spacingLeft=3;spacingRight=3;rotatable=0;labelPosition=right;points=[];portConstraint=eastwest;strokeColor=inherit;" parent="yjypv0oO-a__56mrV2jK-13" vertex="1">
          <mxGeometry y="90" width="160" height="8" as="geometry" />
        </mxCell>
        <mxCell id="yjypv0oO-a__56mrV2jK-16" value="+getHistoricalData()" style="text;strokeColor=none;fillColor=none;align=left;verticalAlign=top;spacingLeft=4;spacingRight=4;overflow=hidden;rotatable=0;points=[[0,0.5],[1,0.5]];portConstraint=eastwest;whiteSpace=wrap;html=1;" parent="yjypv0oO-a__56mrV2jK-13" vertex="1">
          <mxGeometry y="98" width="160" height="26" as="geometry" />
        </mxCell>
        <mxCell id="yjypv0oO-a__56mrV2jK-17" value="PredictionResult&amp;nbsp;" style="swimlane;fontStyle=1;align=center;verticalAlign=top;childLayout=stackLayout;horizontal=1;startSize=26;horizontalStack=0;resizeParent=1;resizeParentMax=0;resizeLast=0;collapsible=1;marginBottom=0;whiteSpace=wrap;html=1;" parent="1" vertex="1">
          <mxGeometry x="-250" y="196" width="160" height="118" as="geometry" />
        </mxCell>
        <mxCell id="yjypv0oO-a__56mrV2jK-18" value="&lt;div&gt;+String stationId&lt;/div&gt;&lt;div&gt;+DateTime time&lt;/div&gt;&lt;div&gt;+Double xgboostValue&lt;/div&gt;&lt;div&gt;+Double lstmValue&lt;/div&gt;&lt;div&gt;+Double finalValue&lt;/div&gt;" style="text;strokeColor=none;fillColor=none;align=left;verticalAlign=top;spacingLeft=4;spacingRight=4;overflow=hidden;rotatable=0;points=[[0,0.5],[1,0.5]];portConstraint=eastwest;whiteSpace=wrap;html=1;" parent="yjypv0oO-a__56mrV2jK-17" vertex="1">
          <mxGeometry y="26" width="160" height="84" as="geometry" />
        </mxCell>
        <mxCell id="yjypv0oO-a__56mrV2jK-19" value="" style="line;strokeWidth=1;fillColor=none;align=left;verticalAlign=middle;spacingTop=-1;spacingLeft=3;spacingRight=3;rotatable=0;labelPosition=right;points=[];portConstraint=eastwest;strokeColor=inherit;" parent="yjypv0oO-a__56mrV2jK-17" vertex="1">
          <mxGeometry y="110" width="160" height="8" as="geometry" />
        </mxCell>
        <mxCell id="yjypv0oO-a__56mrV2jK-21" value="DispatchPlan&amp;nbsp;" style="swimlane;fontStyle=1;align=center;verticalAlign=top;childLayout=stackLayout;horizontal=1;startSize=26;horizontalStack=0;resizeParent=1;resizeParentMax=0;resizeLast=0;collapsible=1;marginBottom=0;whiteSpace=wrap;html=1;" parent="1" vertex="1">
          <mxGeometry x="380" y="390" width="160" height="118" as="geometry" />
        </mxCell>
        <mxCell id="yjypv0oO-a__56mrV2jK-22" value="&lt;div&gt;+String planId&lt;/div&gt;&lt;div&gt;+String sourceStation&lt;/div&gt;&lt;div&gt;+String targetStation&lt;/div&gt;&lt;div&gt;+Integer bikeCount&lt;/div&gt;&lt;div&gt;+String status&lt;/div&gt;" style="text;strokeColor=none;fillColor=none;align=left;verticalAlign=top;spacingLeft=4;spacingRight=4;overflow=hidden;rotatable=0;points=[[0,0.5],[1,0.5]];portConstraint=eastwest;whiteSpace=wrap;html=1;" parent="yjypv0oO-a__56mrV2jK-21" vertex="1">
          <mxGeometry y="26" width="160" height="84" as="geometry" />
        </mxCell>
        <mxCell id="yjypv0oO-a__56mrV2jK-23" value="" style="line;strokeWidth=1;fillColor=none;align=left;verticalAlign=middle;spacingTop=-1;spacingLeft=3;spacingRight=3;rotatable=0;labelPosition=right;points=[];portConstraint=eastwest;strokeColor=inherit;" parent="yjypv0oO-a__56mrV2jK-21" vertex="1">
          <mxGeometry y="110" width="160" height="8" as="geometry" />
        </mxCell>
        <mxCell id="yjypv0oO-a__56mrV2jK-25" value="Threshold&amp;nbsp;" style="swimlane;fontStyle=1;align=center;verticalAlign=top;childLayout=stackLayout;horizontal=1;startSize=26;horizontalStack=0;resizeParent=1;resizeParentMax=0;resizeLast=0;collapsible=1;marginBottom=0;whiteSpace=wrap;html=1;" parent="1" vertex="1">
          <mxGeometry x="360" y="50" width="160" height="98" as="geometry" />
        </mxCell>
        <mxCell id="yjypv0oO-a__56mrV2jK-26" value="&lt;div&gt;+String stationId&lt;/div&gt;&lt;div&gt;+Integer minBikes&lt;/div&gt;&lt;div&gt;+Integer maxBikes&lt;/div&gt;&lt;div&gt;+DateTime updateTime&lt;/div&gt;" style="text;strokeColor=none;fillColor=none;align=left;verticalAlign=top;spacingLeft=4;spacingRight=4;overflow=hidden;rotatable=0;points=[[0,0.5],[1,0.5]];portConstraint=eastwest;whiteSpace=wrap;html=1;" parent="yjypv0oO-a__56mrV2jK-25" vertex="1">
          <mxGeometry y="26" width="160" height="64" as="geometry" />
        </mxCell>
        <mxCell id="yjypv0oO-a__56mrV2jK-27" value="" style="line;strokeWidth=1;fillColor=none;align=left;verticalAlign=middle;spacingTop=-1;spacingLeft=3;spacingRight=3;rotatable=0;labelPosition=right;points=[];portConstraint=eastwest;strokeColor=inherit;" parent="yjypv0oO-a__56mrV2jK-25" vertex="1">
          <mxGeometry y="90" width="160" height="8" as="geometry" />
        </mxCell>
        <mxCell id="z6jtDFrO4imVO3y1Upf1-9" style="edgeStyle=orthogonalEdgeStyle;rounded=0;orthogonalLoop=1;jettySize=auto;html=1;entryX=0.5;entryY=0;entryDx=0;entryDy=0;" edge="1" parent="1" source="yjypv0oO-a__56mrV2jK-29" target="yjypv0oO-a__56mrV2jK-13">
          <mxGeometry relative="1" as="geometry" />
        </mxCell>
        <mxCell id="z6jtDFrO4imVO3y1Upf1-10" value="queries" style="edgeLabel;html=1;align=center;verticalAlign=middle;resizable=0;points=[];" vertex="1" connectable="0" parent="z6jtDFrO4imVO3y1Upf1-9">
          <mxGeometry x="0.0986" y="-3" relative="1" as="geometry">
            <mxPoint as="offset" />
          </mxGeometry>
        </mxCell>
        <mxCell id="yjypv0oO-a__56mrV2jK-29" value="PredictionModule&amp;nbsp;" style="swimlane;fontStyle=1;align=center;verticalAlign=top;childLayout=stackLayout;horizontal=1;startSize=26;horizontalStack=0;resizeParent=1;resizeParentMax=0;resizeLast=0;collapsible=1;marginBottom=0;whiteSpace=wrap;html=1;" parent="1" vertex="1">
          <mxGeometry x="10" y="210" width="160" height="90" as="geometry" />
        </mxCell>
        <mxCell id="yjypv0oO-a__56mrV2jK-31" value="" style="line;strokeWidth=1;fillColor=none;align=left;verticalAlign=middle;spacingTop=-1;spacingLeft=3;spacingRight=3;rotatable=0;labelPosition=right;points=[];portConstraint=eastwest;strokeColor=inherit;" parent="yjypv0oO-a__56mrV2jK-29" vertex="1">
          <mxGeometry y="26" width="160" height="8" as="geometry" />
        </mxCell>
        <mxCell id="yjypv0oO-a__56mrV2jK-32" value="&lt;div&gt;+xgboostPredict()&lt;/div&gt;&lt;div&gt;+lstmPredict()&lt;/div&gt;&lt;div&gt;+compareModels()&lt;/div&gt;" style="text;strokeColor=none;fillColor=none;align=left;verticalAlign=top;spacingLeft=4;spacingRight=4;overflow=hidden;rotatable=0;points=[[0,0.5],[1,0.5]];portConstraint=eastwest;whiteSpace=wrap;html=1;" parent="yjypv0oO-a__56mrV2jK-29" vertex="1">
          <mxGeometry y="34" width="160" height="56" as="geometry" />
        </mxCell>
        <mxCell id="z6jtDFrO4imVO3y1Upf1-13" style="edgeStyle=orthogonalEdgeStyle;rounded=0;orthogonalLoop=1;jettySize=auto;html=1;entryX=0.5;entryY=0;entryDx=0;entryDy=0;" edge="1" parent="1" source="yjypv0oO-a__56mrV2jK-33" target="yjypv0oO-a__56mrV2jK-21">
          <mxGeometry relative="1" as="geometry" />
        </mxCell>
        <mxCell id="z6jtDFrO4imVO3y1Upf1-14" value="creates" style="edgeLabel;html=1;align=center;verticalAlign=middle;resizable=0;points=[];" vertex="1" connectable="0" parent="z6jtDFrO4imVO3y1Upf1-13">
          <mxGeometry x="0.2435" y="6" relative="1" as="geometry">
            <mxPoint x="1" as="offset" />
          </mxGeometry>
        </mxCell>
        <mxCell id="z6jtDFrO4imVO3y1Upf1-15" style="edgeStyle=orthogonalEdgeStyle;rounded=0;orthogonalLoop=1;jettySize=auto;html=1;entryX=0.5;entryY=1;entryDx=0;entryDy=0;" edge="1" parent="1" source="yjypv0oO-a__56mrV2jK-33" target="yjypv0oO-a__56mrV2jK-25">
          <mxGeometry relative="1" as="geometry" />
        </mxCell>
        <mxCell id="z6jtDFrO4imVO3y1Upf1-16" value="uses" style="edgeLabel;html=1;align=center;verticalAlign=middle;resizable=0;points=[];" vertex="1" connectable="0" parent="z6jtDFrO4imVO3y1Upf1-15">
          <mxGeometry x="0.2799" y="-8" relative="1" as="geometry">
            <mxPoint x="-1" as="offset" />
          </mxGeometry>
        </mxCell>
        <mxCell id="yjypv0oO-a__56mrV2jK-33" value="DispatchModule&amp;nbsp;" style="swimlane;fontStyle=1;align=center;verticalAlign=top;childLayout=stackLayout;horizontal=1;startSize=26;horizontalStack=0;resizeParent=1;resizeParentMax=0;resizeLast=0;collapsible=1;marginBottom=0;whiteSpace=wrap;html=1;" parent="1" vertex="1">
          <mxGeometry x="250" y="210" width="160" height="84" as="geometry" />
        </mxCell>
        <mxCell id="yjypv0oO-a__56mrV2jK-35" value="" style="line;strokeWidth=1;fillColor=none;align=left;verticalAlign=middle;spacingTop=-1;spacingLeft=3;spacingRight=3;rotatable=0;labelPosition=right;points=[];portConstraint=eastwest;strokeColor=inherit;" parent="yjypv0oO-a__56mrV2jK-33" vertex="1">
          <mxGeometry y="26" width="160" height="8" as="geometry" />
        </mxCell>
        <mxCell id="yjypv0oO-a__56mrV2jK-36" value="&lt;div&gt;+calculateThreshold()&lt;/div&gt;&lt;div&gt;+generatePlan()&lt;/div&gt;&lt;div&gt;+planRoute()&lt;/div&gt;" style="text;strokeColor=none;fillColor=none;align=left;verticalAlign=top;spacingLeft=4;spacingRight=4;overflow=hidden;rotatable=0;points=[[0,0.5],[1,0.5]];portConstraint=eastwest;whiteSpace=wrap;html=1;" parent="yjypv0oO-a__56mrV2jK-33" vertex="1">
          <mxGeometry y="34" width="160" height="50" as="geometry" />
        </mxCell>
        <mxCell id="z6jtDFrO4imVO3y1Upf1-21" style="edgeStyle=orthogonalEdgeStyle;rounded=0;orthogonalLoop=1;jettySize=auto;html=1;entryX=0.5;entryY=1;entryDx=0;entryDy=0;" edge="1" parent="1" source="yjypv0oO-a__56mrV2jK-37" target="yjypv0oO-a__56mrV2jK-21">
          <mxGeometry relative="1" as="geometry" />
        </mxCell>
        <mxCell id="z6jtDFrO4imVO3y1Upf1-22" value="displays" style="edgeLabel;html=1;align=center;verticalAlign=middle;resizable=0;points=[];" vertex="1" connectable="0" parent="z6jtDFrO4imVO3y1Upf1-21">
          <mxGeometry x="0.065" y="-11" relative="1" as="geometry">
            <mxPoint x="-1" as="offset" />
          </mxGeometry>
        </mxCell>
        <mxCell id="yjypv0oO-a__56mrV2jK-37" value="MapDisplay&amp;nbsp;" style="swimlane;fontStyle=1;align=center;verticalAlign=top;childLayout=stackLayout;horizontal=1;startSize=26;horizontalStack=0;resizeParent=1;resizeParentMax=0;resizeLast=0;collapsible=1;marginBottom=0;whiteSpace=wrap;html=1;" parent="1" vertex="1">
          <mxGeometry x="250" y="592" width="160" height="84" as="geometry" />
        </mxCell>
        <mxCell id="yjypv0oO-a__56mrV2jK-39" value="" style="line;strokeWidth=1;fillColor=none;align=left;verticalAlign=middle;spacingTop=-1;spacingLeft=3;spacingRight=3;rotatable=0;labelPosition=right;points=[];portConstraint=eastwest;strokeColor=inherit;" parent="yjypv0oO-a__56mrV2jK-37" vertex="1">
          <mxGeometry y="26" width="160" height="8" as="geometry" />
        </mxCell>
        <mxCell id="yjypv0oO-a__56mrV2jK-40" value="&lt;div&gt;+showStationFlow()&lt;/div&gt;&lt;div&gt;+showBikeDistribution()&lt;/div&gt;&lt;div&gt;+showDispatchRoute()&lt;/div&gt;" style="text;strokeColor=none;fillColor=none;align=left;verticalAlign=top;spacingLeft=4;spacingRight=4;overflow=hidden;rotatable=0;points=[[0,0.5],[1,0.5]];portConstraint=eastwest;whiteSpace=wrap;html=1;" parent="yjypv0oO-a__56mrV2jK-37" vertex="1">
          <mxGeometry y="34" width="160" height="50" as="geometry" />
        </mxCell>
        <mxCell id="yjypv0oO-a__56mrV2jK-41" value="User" style="swimlane;fontStyle=1;align=center;verticalAlign=top;childLayout=stackLayout;horizontal=1;startSize=26;horizontalStack=0;resizeParent=1;resizeParentMax=0;resizeLast=0;collapsible=1;marginBottom=0;whiteSpace=wrap;html=1;" parent="1" vertex="1">
          <mxGeometry x="-360" y="500" width="160" height="94" as="geometry" />
        </mxCell>
        <mxCell id="yjypv0oO-a__56mrV2jK-42" value="&lt;div&gt;+String userId&lt;/div&gt;&lt;div&gt;+String role&lt;/div&gt;" style="text;strokeColor=none;fillColor=none;align=left;verticalAlign=top;spacingLeft=4;spacingRight=4;overflow=hidden;rotatable=0;points=[[0,0.5],[1,0.5]];portConstraint=eastwest;whiteSpace=wrap;html=1;" parent="yjypv0oO-a__56mrV2jK-41" vertex="1">
          <mxGeometry y="26" width="160" height="34" as="geometry" />
        </mxCell>
        <mxCell id="yjypv0oO-a__56mrV2jK-43" value="" style="line;strokeWidth=1;fillColor=none;align=left;verticalAlign=middle;spacingTop=-1;spacingLeft=3;spacingRight=3;rotatable=0;labelPosition=right;points=[];portConstraint=eastwest;strokeColor=inherit;" parent="yjypv0oO-a__56mrV2jK-41" vertex="1">
          <mxGeometry y="60" width="160" height="8" as="geometry" />
        </mxCell>
        <mxCell id="yjypv0oO-a__56mrV2jK-44" value="+login()" style="text;strokeColor=none;fillColor=none;align=left;verticalAlign=top;spacingLeft=4;spacingRight=4;overflow=hidden;rotatable=0;points=[[0,0.5],[1,0.5]];portConstraint=eastwest;whiteSpace=wrap;html=1;" parent="yjypv0oO-a__56mrV2jK-41" vertex="1">
          <mxGeometry y="68" width="160" height="26" as="geometry" />
        </mxCell>
        <mxCell id="yjypv0oO-a__56mrV2jK-49" value="MetroAdmin&amp;nbsp;" style="swimlane;fontStyle=1;align=center;verticalAlign=top;childLayout=stackLayout;horizontal=1;startSize=26;horizontalStack=0;resizeParent=1;resizeParentMax=0;resizeLast=0;collapsible=1;marginBottom=0;whiteSpace=wrap;html=1;" parent="1" vertex="1">
          <mxGeometry x="-230" y="632" width="160" height="80" as="geometry" />
        </mxCell>
        <mxCell id="yjypv0oO-a__56mrV2jK-51" value="" style="line;strokeWidth=1;fillColor=none;align=left;verticalAlign=middle;spacingTop=-1;spacingLeft=3;spacingRight=3;rotatable=0;labelPosition=right;points=[];portConstraint=eastwest;strokeColor=inherit;" parent="yjypv0oO-a__56mrV2jK-49" vertex="1">
          <mxGeometry y="26" width="160" height="8" as="geometry" />
        </mxCell>
        <mxCell id="yjypv0oO-a__56mrV2jK-52" value="&lt;div&gt;+viewReports()&lt;/div&gt;&lt;div&gt;+adjustThreshold()&lt;/div&gt;" style="text;strokeColor=none;fillColor=none;align=left;verticalAlign=top;spacingLeft=4;spacingRight=4;overflow=hidden;rotatable=0;points=[[0,0.5],[1,0.5]];portConstraint=eastwest;whiteSpace=wrap;html=1;" parent="yjypv0oO-a__56mrV2jK-49" vertex="1">
          <mxGeometry y="34" width="160" height="46" as="geometry" />
        </mxCell>
        <mxCell id="z6jtDFrO4imVO3y1Upf1-38" style="edgeStyle=orthogonalEdgeStyle;rounded=0;orthogonalLoop=1;jettySize=auto;html=1;entryX=0;entryY=0.5;entryDx=0;entryDy=0;" edge="1" parent="1" source="yjypv0oO-a__56mrV2jK-53" target="yjypv0oO-a__56mrV2jK-10">
          <mxGeometry relative="1" as="geometry" />
        </mxCell>
        <mxCell id="z6jtDFrO4imVO3y1Upf1-39" value="admin" style="edgeLabel;html=1;align=center;verticalAlign=middle;resizable=0;points=[];" vertex="1" connectable="0" parent="z6jtDFrO4imVO3y1Upf1-38">
          <mxGeometry x="0.3393" y="1" relative="1" as="geometry">
            <mxPoint x="1" as="offset" />
          </mxGeometry>
        </mxCell>
        <mxCell id="yjypv0oO-a__56mrV2jK-53" value="BikeAdmin&amp;nbsp;" style="swimlane;fontStyle=1;align=center;verticalAlign=top;childLayout=stackLayout;horizontal=1;startSize=26;horizontalStack=0;resizeParent=1;resizeParentMax=0;resizeLast=0;collapsible=1;marginBottom=0;whiteSpace=wrap;html=1;" parent="1" vertex="1">
          <mxGeometry x="-450" y="632" width="160" height="80" as="geometry" />
        </mxCell>
        <mxCell id="yjypv0oO-a__56mrV2jK-55" value="" style="line;strokeWidth=1;fillColor=none;align=left;verticalAlign=middle;spacingTop=-1;spacingLeft=3;spacingRight=3;rotatable=0;labelPosition=right;points=[];portConstraint=eastwest;strokeColor=inherit;" parent="yjypv0oO-a__56mrV2jK-53" vertex="1">
          <mxGeometry y="26" width="160" height="8" as="geometry" />
        </mxCell>
        <mxCell id="yjypv0oO-a__56mrV2jK-56" value="&lt;div&gt;+confirmDispatch()&lt;/div&gt;&lt;div&gt;+updateBikeStatus()&lt;/div&gt;" style="text;strokeColor=none;fillColor=none;align=left;verticalAlign=top;spacingLeft=4;spacingRight=4;overflow=hidden;rotatable=0;points=[[0,0.5],[1,0.5]];portConstraint=eastwest;whiteSpace=wrap;html=1;" parent="yjypv0oO-a__56mrV2jK-53" vertex="1">
          <mxGeometry y="34" width="160" height="46" as="geometry" />
        </mxCell>
        <mxCell id="z6jtDFrO4imVO3y1Upf1-11" style="edgeStyle=orthogonalEdgeStyle;rounded=0;orthogonalLoop=1;jettySize=auto;html=1;entryX=1.019;entryY=-0.037;entryDx=0;entryDy=0;entryPerimeter=0;" edge="1" parent="1" source="yjypv0oO-a__56mrV2jK-33" target="yjypv0oO-a__56mrV2jK-14">
          <mxGeometry relative="1" as="geometry" />
        </mxCell>
        <mxCell id="z6jtDFrO4imVO3y1Upf1-12" value="displays" style="edgeLabel;html=1;align=center;verticalAlign=middle;resizable=0;points=[];" vertex="1" connectable="0" parent="z6jtDFrO4imVO3y1Upf1-11">
          <mxGeometry x="-0.4128" y="-1" relative="1" as="geometry">
            <mxPoint as="offset" />
          </mxGeometry>
        </mxCell>
        <mxCell id="z6jtDFrO4imVO3y1Upf1-17" style="edgeStyle=orthogonalEdgeStyle;rounded=0;orthogonalLoop=1;jettySize=auto;html=1;entryX=0.984;entryY=0.778;entryDx=0;entryDy=0;entryPerimeter=0;" edge="1" parent="1" source="yjypv0oO-a__56mrV2jK-37" target="yjypv0oO-a__56mrV2jK-14">
          <mxGeometry relative="1" as="geometry" />
        </mxCell>
        <mxCell id="z6jtDFrO4imVO3y1Upf1-19" value="displays" style="edgeLabel;html=1;align=center;verticalAlign=middle;resizable=0;points=[];" vertex="1" connectable="0" parent="z6jtDFrO4imVO3y1Upf1-17">
          <mxGeometry x="0.1994" y="6" relative="1" as="geometry">
            <mxPoint as="offset" />
          </mxGeometry>
        </mxCell>
        <mxCell id="z6jtDFrO4imVO3y1Upf1-26" style="edgeStyle=orthogonalEdgeStyle;rounded=0;orthogonalLoop=1;jettySize=auto;html=1;entryX=1.018;entryY=0.611;entryDx=0;entryDy=0;entryPerimeter=0;" edge="1" parent="1" source="yjypv0oO-a__56mrV2jK-37" target="yjypv0oO-a__56mrV2jK-10">
          <mxGeometry relative="1" as="geometry" />
        </mxCell>
        <mxCell id="z6jtDFrO4imVO3y1Upf1-27" value="displays" style="edgeLabel;html=1;align=center;verticalAlign=middle;resizable=0;points=[];" vertex="1" connectable="0" parent="z6jtDFrO4imVO3y1Upf1-26">
          <mxGeometry x="0.3655" y="2" relative="1" as="geometry">
            <mxPoint as="offset" />
          </mxGeometry>
        </mxCell>
        <mxCell id="z6jtDFrO4imVO3y1Upf1-28" style="edgeStyle=orthogonalEdgeStyle;rounded=0;orthogonalLoop=1;jettySize=auto;html=1;entryX=0.5;entryY=1;entryDx=0;entryDy=0;" edge="1" parent="1" source="yjypv0oO-a__56mrV2jK-22" target="yjypv0oO-a__56mrV2jK-9">
          <mxGeometry relative="1" as="geometry">
            <Array as="points">
              <mxPoint x="590" y="451" />
              <mxPoint x="590" y="848" />
              <mxPoint x="90" y="848" />
            </Array>
          </mxGeometry>
        </mxCell>
        <mxCell id="z6jtDFrO4imVO3y1Upf1-29" value="includes" style="edgeLabel;html=1;align=center;verticalAlign=middle;resizable=0;points=[];" vertex="1" connectable="0" parent="z6jtDFrO4imVO3y1Upf1-28">
          <mxGeometry x="0.3352" y="1" relative="1" as="geometry">
            <mxPoint as="offset" />
          </mxGeometry>
        </mxCell>
        <mxCell id="z6jtDFrO4imVO3y1Upf1-30" style="edgeStyle=orthogonalEdgeStyle;rounded=0;orthogonalLoop=1;jettySize=auto;html=1;entryX=1.063;entryY=0.214;entryDx=0;entryDy=0;entryPerimeter=0;" edge="1" parent="1" source="yjypv0oO-a__56mrV2jK-31" target="yjypv0oO-a__56mrV2jK-18">
          <mxGeometry relative="1" as="geometry" />
        </mxCell>
        <mxCell id="z6jtDFrO4imVO3y1Upf1-31" value="produces" style="edgeLabel;html=1;align=center;verticalAlign=middle;resizable=0;points=[];" vertex="1" connectable="0" parent="z6jtDFrO4imVO3y1Upf1-30">
          <mxGeometry x="0.3197" relative="1" as="geometry">
            <mxPoint x="1" as="offset" />
          </mxGeometry>
        </mxCell>
        <mxCell id="z6jtDFrO4imVO3y1Upf1-36" style="edgeStyle=orthogonalEdgeStyle;rounded=0;orthogonalLoop=1;jettySize=auto;html=1;entryX=0;entryY=0.5;entryDx=0;entryDy=0;" edge="1" parent="1" source="yjypv0oO-a__56mrV2jK-49" target="yjypv0oO-a__56mrV2jK-16">
          <mxGeometry relative="1" as="geometry" />
        </mxCell>
        <mxCell id="z6jtDFrO4imVO3y1Upf1-37" value="admin" style="edgeLabel;html=1;align=center;verticalAlign=middle;resizable=0;points=[];" vertex="1" connectable="0" parent="z6jtDFrO4imVO3y1Upf1-36">
          <mxGeometry x="0.2711" y="-2" relative="1" as="geometry">
            <mxPoint as="offset" />
          </mxGeometry>
        </mxCell>
        <mxCell id="z6jtDFrO4imVO3y1Upf1-40" style="edgeStyle=orthogonalEdgeStyle;rounded=0;orthogonalLoop=1;jettySize=auto;html=1;entryX=-0.005;entryY=0.847;entryDx=0;entryDy=0;entryPerimeter=0;" edge="1" parent="1" source="yjypv0oO-a__56mrV2jK-5" target="yjypv0oO-a__56mrV2jK-10">
          <mxGeometry relative="1" as="geometry">
            <Array as="points">
              <mxPoint x="-490" y="195" />
              <mxPoint x="-490" y="807" />
            </Array>
          </mxGeometry>
        </mxCell>
        <mxCell id="z6jtDFrO4imVO3y1Upf1-41" value="manages" style="edgeLabel;html=1;align=center;verticalAlign=middle;resizable=0;points=[];" vertex="1" connectable="0" parent="z6jtDFrO4imVO3y1Upf1-40">
          <mxGeometry x="0.6071" y="-7" relative="1" as="geometry">
            <mxPoint x="1" as="offset" />
          </mxGeometry>
        </mxCell>
        <mxCell id="z6jtDFrO4imVO3y1Upf1-42" value="" style="endArrow=block;endSize=16;endFill=0;html=1;rounded=0;exitX=0.5;exitY=0;exitDx=0;exitDy=0;entryX=0.379;entryY=1.201;entryDx=0;entryDy=0;entryPerimeter=0;" edge="1" parent="1" source="yjypv0oO-a__56mrV2jK-53" target="yjypv0oO-a__56mrV2jK-44">
          <mxGeometry width="160" relative="1" as="geometry">
            <mxPoint x="-120" y="480" as="sourcePoint" />
            <mxPoint x="-270" y="590" as="targetPoint" />
          </mxGeometry>
        </mxCell>
        <mxCell id="z6jtDFrO4imVO3y1Upf1-43" value="" style="endArrow=block;endSize=16;endFill=0;html=1;rounded=0;entryX=0.45;entryY=1.25;entryDx=0;entryDy=0;entryPerimeter=0;" edge="1" parent="1" source="yjypv0oO-a__56mrV2jK-49" target="yjypv0oO-a__56mrV2jK-44">
          <mxGeometry width="160" relative="1" as="geometry">
            <mxPoint x="-180" y="630" as="sourcePoint" />
            <mxPoint x="40" y="480" as="targetPoint" />
          </mxGeometry>
        </mxCell>
      </root>
    </mxGraphModel>
  </diagram>
</mxfile>
